<svg width="35" height="39" viewBox="0 0 35 39" fill="none" xmlns="http://www.w3.org/2000/svg">
<g filter="url(#filter0_d_2017_520)">
<path d="M17.5 17.1874C19.0188 17.1874 20.25 15.9562 20.25 14.4374C20.25 12.9186 19.0188 11.6874 17.5 11.6874C15.9812 11.6874 14.75 12.9186 14.75 14.4374C14.75 15.9562 15.9812 17.1874 17.5 17.1874ZM17.5 17.1874V21.3124M29.7512 15.2899C29.7512 22.0137 24.87 28.3112 18.2012 30.1537C17.7475 30.2774 17.2525 30.2774 16.7987 30.1537C10.13 28.3112 5.24872 22.0137 5.24872 15.2899V9.25364C5.24872 8.12614 6.10124 6.8474 7.15999 6.42115L14.8187 3.28619C16.5375 2.58494 18.4762 2.58494 20.195 3.28619L27.8537 6.42115C28.8987 6.8474 29.765 8.12614 29.765 9.25364L29.7512 15.2899Z" stroke="black" stroke-width="1.5" stroke-miterlimit="10" stroke-linecap="round" stroke-linejoin="round"/>
</g>
<defs>
<filter id="filter0_d_2017_520" x="-3" y="0" width="41" height="41" filterUnits="userSpaceOnUse" color-interpolation-filters="sRGB">
<feFlood flood-opacity="0" result="BackgroundImageFix"/>
<feColorMatrix in="SourceAlpha" type="matrix" values="0 0 0 0 0 0 0 0 0 0 0 0 0 0 0 0 0 0 127 0" result="hardAlpha"/>
<feOffset dy="4"/>
<feGaussianBlur stdDeviation="2"/>
<feComposite in2="hardAlpha" operator="out"/>
<feColorMatrix type="matrix" values="0 0 0 0 0 0 0 0 0 0 0 0 0 0 0 0 0 0 0.25 0"/>
<feBlend mode="normal" in2="BackgroundImageFix" result="effect1_dropShadow_2017_520"/>
<feBlend mode="normal" in="SourceGraphic" in2="effect1_dropShadow_2017_520" result="shape"/>
</filter>
</defs>
</svg>
